<mxfile host="app.diagrams.net" modified="2024-01-07T16:30:51.244Z" agent="Mozilla/5.0 (Windows NT 10.0; Win64; x64) AppleWebKit/537.36 (KHTML, like Gecko) Chrome/120.0.0.0 Safari/537.36" etag="1AXcceAMA9SpHIwrAx33" version="22.1.16" type="device">
  <diagram name="Seite-1" id="QP7oHoSzBWz8RqSxICpP">
    <mxGraphModel dx="1195" dy="622" grid="1" gridSize="10" guides="1" tooltips="1" connect="1" arrows="1" fold="1" page="1" pageScale="1" pageWidth="827" pageHeight="1169" math="0" shadow="0">
      <root>
        <mxCell id="0" />
        <mxCell id="1" parent="0" />
        <mxCell id="LC5mWiwYeEPQYET0ECP--1" value="Vereinsverwaltung" style="shape=umlFrame;whiteSpace=wrap;html=1;pointerEvents=0;width=110;height=37;" parent="1" vertex="1">
          <mxGeometry x="230" y="40" width="670" height="610" as="geometry" />
        </mxCell>
        <mxCell id="LC5mWiwYeEPQYET0ECP--2" value="Mitglied erfassen" style="ellipse;whiteSpace=wrap;html=1;" parent="1" vertex="1">
          <mxGeometry x="240" y="90" width="140" height="70" as="geometry" />
        </mxCell>
        <mxCell id="LC5mWiwYeEPQYET0ECP--4" style="rounded=0;orthogonalLoop=1;jettySize=auto;html=1;endArrow=none;endFill=0;" parent="1" source="LC5mWiwYeEPQYET0ECP--3" target="LC5mWiwYeEPQYET0ECP--2" edge="1">
          <mxGeometry relative="1" as="geometry" />
        </mxCell>
        <mxCell id="LC5mWiwYeEPQYET0ECP--6" style="rounded=0;orthogonalLoop=1;jettySize=auto;html=1;endArrow=none;endFill=0;" parent="1" source="LC5mWiwYeEPQYET0ECP--3" target="LC5mWiwYeEPQYET0ECP--5" edge="1">
          <mxGeometry relative="1" as="geometry" />
        </mxCell>
        <mxCell id="LC5mWiwYeEPQYET0ECP--9" style="rounded=0;orthogonalLoop=1;jettySize=auto;html=1;endArrow=none;endFill=0;" parent="1" source="LC5mWiwYeEPQYET0ECP--3" target="LC5mWiwYeEPQYET0ECP--8" edge="1">
          <mxGeometry relative="1" as="geometry" />
        </mxCell>
        <mxCell id="LC5mWiwYeEPQYET0ECP--13" style="rounded=0;orthogonalLoop=1;jettySize=auto;html=1;endArrow=none;endFill=0;" parent="1" source="LC5mWiwYeEPQYET0ECP--3" target="LC5mWiwYeEPQYET0ECP--12" edge="1">
          <mxGeometry relative="1" as="geometry" />
        </mxCell>
        <mxCell id="LC5mWiwYeEPQYET0ECP--17" style="rounded=0;orthogonalLoop=1;jettySize=auto;html=1;endArrow=none;endFill=0;" parent="1" source="LC5mWiwYeEPQYET0ECP--3" target="LC5mWiwYeEPQYET0ECP--14" edge="1">
          <mxGeometry relative="1" as="geometry" />
        </mxCell>
        <mxCell id="sATDczV30odTQPf0jmUU-2" style="rounded=0;orthogonalLoop=1;jettySize=auto;html=1;endArrow=none;endFill=0;" parent="1" source="LC5mWiwYeEPQYET0ECP--3" target="LC5mWiwYeEPQYET0ECP--10" edge="1">
          <mxGeometry relative="1" as="geometry" />
        </mxCell>
        <mxCell id="sATDczV30odTQPf0jmUU-3" style="rounded=0;orthogonalLoop=1;jettySize=auto;html=1;endArrow=none;endFill=0;" parent="1" source="LC5mWiwYeEPQYET0ECP--3" target="LC5mWiwYeEPQYET0ECP--15" edge="1">
          <mxGeometry relative="1" as="geometry" />
        </mxCell>
        <mxCell id="KSkD0ZimauGJofoJ77aI-3" style="rounded=0;orthogonalLoop=1;jettySize=auto;html=1;endArrow=none;endFill=0;" edge="1" parent="1" source="LC5mWiwYeEPQYET0ECP--3" target="KSkD0ZimauGJofoJ77aI-1">
          <mxGeometry relative="1" as="geometry" />
        </mxCell>
        <mxCell id="KSkD0ZimauGJofoJ77aI-4" style="rounded=0;orthogonalLoop=1;jettySize=auto;html=1;endArrow=none;endFill=0;" edge="1" parent="1" source="LC5mWiwYeEPQYET0ECP--3" target="KSkD0ZimauGJofoJ77aI-2">
          <mxGeometry relative="1" as="geometry" />
        </mxCell>
        <mxCell id="LC5mWiwYeEPQYET0ECP--3" value="Benutzer" style="shape=umlActor;verticalLabelPosition=bottom;verticalAlign=top;html=1;" parent="1" vertex="1">
          <mxGeometry x="30" y="260" width="30" height="60" as="geometry" />
        </mxCell>
        <mxCell id="LC5mWiwYeEPQYET0ECP--5" value="SEPA für automatischen Bankeinzug des Beitrags für Mitglied im PDF-Format&lt;br&gt;generieren" style="ellipse;whiteSpace=wrap;html=1;" parent="1" vertex="1">
          <mxGeometry x="400" y="90" width="160" height="90" as="geometry" />
        </mxCell>
        <mxCell id="LC5mWiwYeEPQYET0ECP--11" value="&amp;lt;&amp;lt; extend &amp;gt;&amp;gt;" style="rounded=0;orthogonalLoop=1;jettySize=auto;html=1;dashed=1;dashPattern=8 8;" parent="1" target="LC5mWiwYeEPQYET0ECP--10" edge="1" source="LC5mWiwYeEPQYET0ECP--8">
          <mxGeometry relative="1" as="geometry">
            <mxPoint x="400" y="348" as="sourcePoint" />
            <mxPoint x="514" y="173" as="targetPoint" />
          </mxGeometry>
        </mxCell>
        <mxCell id="LC5mWiwYeEPQYET0ECP--8" value="Kontostand des Vereins einsehen" style="ellipse;whiteSpace=wrap;html=1;" parent="1" vertex="1">
          <mxGeometry x="414" y="430" width="140" height="70" as="geometry" />
        </mxCell>
        <mxCell id="LC5mWiwYeEPQYET0ECP--10" value="Zu - und Abgänge vom Konto in anzugebenen Zeiträumen einsehen" style="ellipse;whiteSpace=wrap;html=1;" parent="1" vertex="1">
          <mxGeometry x="430" y="280" width="200" height="100" as="geometry" />
        </mxCell>
        <mxCell id="LC5mWiwYeEPQYET0ECP--12" value="Jahresbilanz erstellen" style="ellipse;whiteSpace=wrap;html=1;" parent="1" vertex="1">
          <mxGeometry x="274" y="480" width="140" height="70" as="geometry" />
        </mxCell>
        <mxCell id="LC5mWiwYeEPQYET0ECP--16" value="&amp;lt;&amp;lt; include &amp;gt;&amp;gt;" style="rounded=0;orthogonalLoop=1;jettySize=auto;html=1;dashed=1;dashPattern=8 8;" parent="1" source="LC5mWiwYeEPQYET0ECP--14" target="LC5mWiwYeEPQYET0ECP--15" edge="1">
          <mxGeometry relative="1" as="geometry" />
        </mxCell>
        <mxCell id="LC5mWiwYeEPQYET0ECP--14" value="Beitragsstaffelung konfigurieren" style="ellipse;whiteSpace=wrap;html=1;" parent="1" vertex="1">
          <mxGeometry x="250" y="560" width="140" height="70" as="geometry" />
        </mxCell>
        <mxCell id="LC5mWiwYeEPQYET0ECP--15" value="Aktuelle Beitragsstaffelung einsehen" style="ellipse;whiteSpace=wrap;html=1;" parent="1" vertex="1">
          <mxGeometry x="470" y="530" width="140" height="70" as="geometry" />
        </mxCell>
        <mxCell id="KSkD0ZimauGJofoJ77aI-1" value="Automatischer Einzug des Beitrags für Mitglied aktivieren" style="ellipse;whiteSpace=wrap;html=1;" vertex="1" parent="1">
          <mxGeometry x="580" y="130" width="140" height="70" as="geometry" />
        </mxCell>
        <mxCell id="KSkD0ZimauGJofoJ77aI-2" value="Automatischer Einzug des Beitrags für Mitglied deaktivieren" style="ellipse;whiteSpace=wrap;html=1;" vertex="1" parent="1">
          <mxGeometry x="610" y="225" width="140" height="70" as="geometry" />
        </mxCell>
        <mxCell id="KSkD0ZimauGJofoJ77aI-7" style="rounded=0;orthogonalLoop=1;jettySize=auto;html=1;endArrow=none;endFill=0;" edge="1" parent="1" source="KSkD0ZimauGJofoJ77aI-6" target="KSkD0ZimauGJofoJ77aI-1">
          <mxGeometry relative="1" as="geometry" />
        </mxCell>
        <mxCell id="KSkD0ZimauGJofoJ77aI-8" style="rounded=0;orthogonalLoop=1;jettySize=auto;html=1;endArrow=none;endFill=0;" edge="1" parent="1" source="KSkD0ZimauGJofoJ77aI-6" target="KSkD0ZimauGJofoJ77aI-2">
          <mxGeometry relative="1" as="geometry" />
        </mxCell>
        <mxCell id="KSkD0ZimauGJofoJ77aI-9" style="rounded=0;orthogonalLoop=1;jettySize=auto;html=1;endArrow=none;endFill=0;" edge="1" parent="1" source="KSkD0ZimauGJofoJ77aI-6" target="LC5mWiwYeEPQYET0ECP--8">
          <mxGeometry relative="1" as="geometry" />
        </mxCell>
        <mxCell id="KSkD0ZimauGJofoJ77aI-10" style="rounded=0;orthogonalLoop=1;jettySize=auto;html=1;endArrow=none;endFill=0;" edge="1" parent="1" source="KSkD0ZimauGJofoJ77aI-6" target="LC5mWiwYeEPQYET0ECP--10">
          <mxGeometry relative="1" as="geometry" />
        </mxCell>
        <mxCell id="KSkD0ZimauGJofoJ77aI-6" value="Bank" style="shape=umlActor;verticalLabelPosition=bottom;verticalAlign=top;html=1;" vertex="1" parent="1">
          <mxGeometry x="930" y="295" width="30" height="60" as="geometry" />
        </mxCell>
      </root>
    </mxGraphModel>
  </diagram>
</mxfile>
